<svg width="608" height="100" viewBox="0 0 608 100" fill="none" xmlns="http://www.w3.org/2000/svg">
<path d="M97.8516 6.76814C101.797 8.85867 107.429 13.014 107.429 13.014L94.1041 28.4204C94.1041 28.4204 90.5173 25.0628 87.8583 23.4237C84.1311 21.1262 81.7309 20.1716 77.4485 19.2598C72.2 18.1424 68.9075 17.9345 63.7076 19.2598C57.4106 20.8648 53.9305 23.2038 49.5504 28.004C45.5788 32.3566 43.9714 35.6303 42.4718 41.3285C40.9813 46.9919 41.2915 50.5123 42.0554 56.3185C42.2925 58.121 42.4066 59.1457 42.8882 60.8988C44.3115 66.0811 49.6128 71.8526 52.2314 74.4658C52.7613 74.9946 52.4051 75.9356 51.6569 75.9623L30.872 76.7047C30.5566 76.7159 30.241 76.6828 29.9348 76.6062C28.106 76.149 26.5504 74.9504 25.7187 73.2588C24.0218 69.8071 21.227 63.6237 20.4031 58.8169C19.3867 52.8868 19.6121 49.3748 20.4031 43.4104C20.9735 39.1091 21.4201 36.6626 22.9014 32.5843C25.0154 26.7643 26.9737 23.7016 30.8128 18.8434C34.8077 13.7882 37.4521 11.0597 42.8882 7.60092C47.8061 4.47179 50.9612 3.1329 56.629 1.77146C60.4533 0.852865 66.6224 0.522292 66.6224 0.522292C66.6224 0.522292 75.0823 -0.430014 80.3632 0.522292C82.3427 0.879242 83.4282 1.21085 85.3599 1.77146C90.4058 3.23588 93.2089 4.30822 97.8516 6.76814Z" fill="#D92B46"/>
<path d="M15.4064 80.8855C8.68703 77.4534 0 69.2266 0 69.2266C0 69.2266 9.20816 75.5031 15.8228 77.9708C20.8482 79.8456 23.847 80.4797 29.1473 81.3019C34.7806 82.1758 38.0283 82.4377 43.7209 82.1347C48.9802 81.8548 51.9393 81.3435 57.0454 80.0527C63.6329 78.3876 67.1381 76.7032 73.2846 73.8069C85.0753 68.2509 91.0364 63.6676 101.183 55.4858C114.971 44.3667 132.412 22.591 132.412 22.591L123.668 13.4304L158.228 6.76814L151.15 41.3285L142.405 33.4171C142.405 33.4171 128.99 46.9865 119.504 54.653C110.521 61.9128 105.364 65.9637 95.3533 71.725C89.0504 75.3524 85.3974 77.2247 78.6977 80.0527C71.2598 83.1924 67.0527 85.1759 59.1274 86.715C50.023 88.4831 44.5168 89.2135 35.3931 87.5478C31.7453 86.8818 26.2326 85.0494 26.2326 85.0494C26.2326 85.0494 19.4405 82.946 15.4064 80.8855Z" fill="#D92B46"/>
<path d="M69.9535 60.066V42.5777H108.678L87.8583 60.066H69.9535Z" fill="#D92B46"/>
<path d="M62.8749 90.8789C55.6681 92.304 44.1373 92.5444 44.1373 92.5444C44.1373 92.5444 48.5391 95.4265 51.6323 96.7083C55.058 98.1279 57.139 98.5753 60.7929 99.2067C68.1655 100.481 72.5862 100.132 79.9468 98.7903C86.5234 97.5919 90.12 96.1862 96.1861 93.3772C102.411 90.4944 111.176 84.2167 111.176 84.2167V66.7283C111.176 66.7283 106.661 70.1021 103.681 72.1413C96.639 76.9612 92.6739 79.7695 84.9435 83.3839C76.6984 87.2389 71.8038 89.1132 62.8749 90.8789Z" fill="#D92B46"/>
<path d="M213.628 60.24V47.76H252.628L251.548 93H240.868L240.148 80.4C236.428 88.56 228.268 95.04 212.668 95.04C186.388 95.04 170.308 73.8 170.308 50.16C170.308 26.52 186.148 5.28 214.588 5.28C236.548 5.28 248.428 18.24 252.628 33.72H236.308C233.548 25.08 227.428 18.96 214.588 18.96C196.228 18.96 186.388 33.12 186.388 50.16C186.388 67.2 196.228 81.36 214.108 81.36C227.548 81.36 237.388 75.12 238.828 60.12L213.628 60.24ZM290.472 94.8C272.352 94.8 257.952 81.96 257.952 61.92C257.952 42 272.352 29.28 290.472 29.28C308.592 29.28 322.872 42 322.872 61.92C322.872 81.96 308.592 94.8 290.472 94.8ZM273.072 61.92C273.072 73.2 279.912 82.56 290.472 82.56C301.032 82.56 307.872 73.2 307.872 61.92C307.872 50.76 301.032 41.4 290.472 41.4C279.912 41.4 273.072 50.76 273.072 61.92ZM337.03 30.96C341.83 46.8 346.87 61.68 351.43 77.64H351.79C355.63 63.72 361.03 47.4 366.19 30.96H382.27L360.07 93H342.79C335.35 72.48 328.03 51.6 320.59 30.96H337.03ZM412.708 94.8C394.588 94.8 380.188 81.96 380.188 61.92C380.188 42 394.588 29.28 412.708 29.28C430.828 29.28 445.108 42 445.108 61.92C445.108 81.96 430.828 94.8 412.708 94.8ZM395.308 61.92C395.308 73.2 402.148 82.56 412.708 82.56C423.268 82.56 430.108 73.2 430.108 61.92C430.108 50.76 423.268 41.4 412.708 41.4C402.148 41.4 395.308 50.76 395.308 61.92ZM470.013 69.72C470.013 76.92 471.573 81 478.173 81H482.133V93.24H474.693C459.333 93.48 455.013 84.36 455.013 71.88V42.72H445.053V30.96H455.013V16.92L470.013 10.32V30.96H482.493V42.72H470.013V69.72ZM487.854 49.92C489.654 39.72 498.174 29.04 514.494 29.04C533.934 29.04 541.134 40.2 541.134 55.44V77.88C541.134 82.68 541.494 89.04 542.334 93H526.854C526.494 90.96 526.374 88.68 526.374 86.64V83.52H526.254C523.734 88.44 518.574 94.68 506.814 94.68C493.254 94.68 485.094 86.52 485.094 76.08C485.094 59.04 505.494 57.36 514.134 56.04C522.174 54.84 526.014 53.64 526.014 48.36C526.014 43.44 521.694 40.56 514.614 40.56C508.494 40.56 503.934 44.16 502.374 49.92H487.854ZM500.454 75.36C500.454 79.8 504.054 83.28 511.014 83.28C518.934 83.28 526.254 78.6 526.254 64.2V58.92C524.814 61.92 521.574 64.68 512.454 66.48C504.174 68.16 500.454 70.68 500.454 75.36ZM544.577 93L566.417 61.44L545.177 30.96H562.217L574.937 49.56L587.657 30.96H604.697L583.457 61.32L605.297 93H588.257L574.937 73.2L561.617 93H544.577Z" fill="white"/>
</svg>
